# xmcd
#
# Track frame offsets: 
#        150
#        28059
#        65098
#        98266
#        148872
#        173143
#        213836
#        253849
#        272348
#
# Disc length: 4234 seconds
#
# Revision: 8
# Processed by: cddbd v1.5.2PL0 Copyright (c) Steve Scherf et al.
# Submitted via: ExactAudioCopyFreeDBPlugin 1.0
#
DISCID=7c108809
DTITLE=Stan Getz, Kenny Barron - Café Montmartre
DYEAR=2002
DGENRE=Jazz
TTITLE0=People Time
TTITLE1=I Thought About You
TTITLE2=Soul Eyes
TTITLE3=I Can't Get Started
TTITLE4=I'm Okay
TTITLE5=Falling in Love
TTITLE6=I Remember Clifford
TTITLE7=Blood Count
TTITLE8=First Song (for Ruth)
EXTD=YEAR: 2002
EXTT0=
EXTT1=
EXTT2=
EXTT3=
EXTT4=
EXTT5=
EXTT6=
EXTT7=
EXTT8=
PLAYORDER=
